<?xml version="1.0" encoding="utf-8"?>
<!-- Generator: Adobe Illustrator 16.0.0, SVG Export Plug-In . SVG Version: 6.00 Build 0)  -->
<!DOCTYPE svg PUBLIC "-//W3C//DTD SVG 1.1//EN" "http://www.w3.org/Graphics/SVG/1.1/DTD/svg11.dtd">
<svg version="1.1" id="Capa_1" xmlns="http://www.w3.org/2000/svg" xmlns:xlink="http://www.w3.org/1999/xlink" x="0px" y="0px"
	 width="1268px" height="904px" viewBox="0 0 1268 904" enable-background="new 0 0 1268 904" xml:space="preserve">
<g>
	<path fill="#EA0314" d="M877.191,278.421c-0.697-3.534-3.1-6.492-6.415-7.899l-38.454-16.325l-5.184-25.82
		c-0.861-4.291-4.214-7.646-8.504-8.512l-25.805-5.211l-16.36-38.438c-1.41-3.313-4.37-5.712-7.899-6.407
		c-3.535-0.688-7.18,0.405-9.738,2.936c-39.058,38.622-242.348,241.914-281.197,281.197c-2.525,2.554-3.625,6.191-2.939,9.716
		c0.686,3.526,3.071,6.484,6.369,7.903l38.329,16.499l5.232,25.822c0.871,4.292,4.231,7.643,8.526,8.498l25.865,5.153l16.392,38.386
		c1.413,3.309,4.372,5.703,7.901,6.396c0.697,0.137,1.396,0.202,2.092,0.202c2.833,0,5.586-1.108,7.64-3.139
		c39.303-38.867,242.467-242.029,281.215-281.215C876.789,285.603,877.889,281.952,877.191,278.421z M568.883,507.341l-24.393-4.86
		l-4.925-24.309c-0.708-3.491-3.082-6.415-6.354-7.823l-28.915-12.446c5.942-5.995,12.253-12.351,18.213-18.342l84.931,84.928
		c-5.984,5.956-12.333,12.257-18.323,18.195l-12.366-28.952C575.343,510.431,572.398,508.04,568.883,507.341z M711.917,386.055
		c1.299,1.3,1.853,3.168,1.472,4.966c-0.378,1.797-1.643,3.282-3.357,3.943l-92.282,35.648c-0.639,0.248-1.302,0.364-1.956,0.364
		c-1.678,0-3.309-0.778-4.356-2.184c-1.457-1.955-1.435-4.641,0.055-6.57l33.395-43.234l-9.205-9.202
		c-1.093-1.096-1.669-2.602-1.583-4.146c0.087-1.545,0.826-2.978,2.037-3.942l56.134-44.807c2.161-1.726,5.275-1.554,7.229,0.405
		l35.869,35.866c1.257,1.256,1.82,3.047,1.506,4.795c-0.311,1.749-1.458,3.234-3.072,3.979l-31.477,14.522L711.917,386.055z
		 M824.816,307.132l-84.952-84.951c7.229-7.202,15.333-15.25,22.876-22.726l12.332,28.974c1.402,3.296,4.338,5.688,7.848,6.396
		l24.332,4.911l4.891,24.36c0.708,3.519,3.105,6.46,6.408,7.863l28.986,12.305C840.063,291.804,832.019,299.906,824.816,307.132z"/>
</g>
<circle fill="none" stroke="#EA0314" stroke-width="16" stroke-miterlimit="10" cx="690.587" cy="366.099" r="266.987"/>
</svg>
