<?xml version="1.0" encoding="utf-8"?>
<!-- Generator: Adobe Illustrator 16.0.0, SVG Export Plug-In . SVG Version: 6.00 Build 0)  -->
<!DOCTYPE svg PUBLIC "-//W3C//DTD SVG 1.1//EN" "http://www.w3.org/Graphics/SVG/1.1/DTD/svg11.dtd">
<svg version="1.1" id="Capa_1" xmlns="http://www.w3.org/2000/svg" xmlns:xlink="http://www.w3.org/1999/xlink" x="0px" y="0px"
	 width="1268px" height="904px" viewBox="0 0 1268 904" enable-background="new 0 0 1268 904" xml:space="preserve">
<g>
	<path fill="#EA0314" d="M534.829,484.152l38.149-84.453c2.321-5.139,7.498-8.368,13.162-8.137
		c5.634,0.222,10.572,3.836,12.484,9.139l60.952,169.013L716.686,445.9c1.943-4.21,5.861-7.17,10.441-7.883
		c4.576-0.714,9.213,0.909,12.344,4.329l38.291,41.806h116.997c25.847-57.529,22.453-102.944,14.24-132.011
		c-16.653-58.954-71.107-100.13-132.423-100.13c-8.589,0-17.349,0.794-26.039,2.361c-35.281,6.362-63.985,25.058-83.01,54.063
		c-3.546,5.401-6.73,11.155-9.522,17.159c-2.792-6.004-5.977-11.758-9.521-17.159c-19.026-29.008-47.73-47.701-83.01-54.063
		c-8.691-1.566-17.451-2.361-26.039-2.361c-61.315,0-115.77,41.175-132.423,100.13c-8.211,29.067-11.605,74.48,14.242,132.011
		H534.829L534.829,484.152z"/>
	<path fill="#EA0314" d="M771.666,511.848c-3.883,0-7.589-1.631-10.211-4.496l-28.343-30.945l-62.532,135.57
		c-2.27,4.922-7.188,8.047-12.571,8.047c-0.2,0-0.398-0.002-0.599-0.014c-5.613-0.242-10.525-3.852-12.432-9.135l-60.822-168.654
		l-27.77,61.48c-2.242,4.957-7.178,8.146-12.62,8.146H435.51c39.467,67.934,111.749,135.939,215.014,202.252
		c2.278,1.465,4.879,2.197,7.481,2.197c2.601,0,5.202-0.732,7.48-2.197C768.75,647.789,841.033,579.781,880.5,511.848H771.666
		L771.666,511.848z"/>
</g>
<circle fill="none" cx="654.322" cy="436.318" r="369.037"/>
<circle fill="none" stroke="#EA0314" stroke-width="16" stroke-miterlimit="10" cx="651.321" cy="445.319" r="351.035"/>
</svg>
